<svg aria-hidden="true" style="position: absolute; width: 0; height: 0; overflow: hidden;" version="1.1" xmlns="http://www.w3.org/2000/svg" xmlns:xlink="http://www.w3.org/1999/xlink">
<defs>
<symbol id="icon-arrow" viewBox="0 0 32 32">
<path d="M0.256 23.481c0 0.269 0.106 0.544 0.313 0.75 0.412 0.412 1.087 0.412 1.5 0l14.119-14.119 13.912 13.912c0.412 0.412 1.088 0.412 1.5 0s0.412-1.088 0-1.5l-14.662-14.669c-0.413-0.412-1.088-0.412-1.5 0l-14.869 14.869c-0.213 0.212-0.313 0.481-0.313 0.756z"></path>
</symbol>
<symbol id="icon-eraser" viewBox="0 0 32 32">
<path d="M20 21l-6 6h-5.656l-3.758-3.758c-0.186-0.186-0.333-0.406-0.434-0.649s-0.152-0.503-0.152-0.765c0-0.263 0.052-0.523 0.152-0.766s0.248-0.463 0.434-0.649l7.414-7.414 8 8z"></path>
<path d="M28.125 10.050l-5.175-5.175c-0.563-0.563-1.326-0.879-2.121-0.879s-1.559 0.316-2.121 0.879l-14.833 14.833c-0.563 0.563-0.879 1.326-0.879 2.121s0.316 1.559 0.879 2.121l3.758 3.758c0.093 0.093 0.204 0.167 0.326 0.217s0.252 0.076 0.384 0.075h18.658c0.265 0 0.52-0.105 0.707-0.293s0.293-0.442 0.293-0.707c0-0.265-0.105-0.52-0.293-0.707s-0.442-0.293-0.707-0.293h-10.588l11.712-11.708c0.563-0.563 0.879-1.326 0.879-2.121s-0.316-1.559-0.879-2.121zM13.585 26h-4.829l-3.465-3.465c-0.187-0.187-0.293-0.442-0.293-0.707s0.105-0.519 0.293-0.707l6.709-6.708 6.586 6.586-5.001 5zM26.71 12.875l-6.71 6.711-6.586-6.586 6.711-6.707c0.093-0.093 0.203-0.167 0.325-0.217s0.252-0.076 0.383-0.076c0.131 0 0.262 0.026 0.383 0.076s0.232 0.124 0.325 0.217l5.172 5.173c0.187 0.187 0.293 0.442 0.293 0.707s-0.105 0.519-0.293 0.707l-0.002-0.004z"></path>
</symbol>
<symbol id="icon-reset" viewBox="0 0 32 32">
<path d="M16 28c-3.067 0-5.739-1.016-8.016-3.049s-3.583-4.572-3.917-7.617h2.733c0.311 2.311 1.339 4.222 3.084 5.733s3.784 2.267 6.116 2.267c2.6 0 4.806-0.905 6.617-2.716s2.717-4.016 2.716-6.617c0-2.6-0.905-4.805-2.716-6.616s-4.016-2.716-6.617-2.717c-1.533 0-2.967 0.356-4.3 1.067s-2.456 1.689-3.367 2.933h3.667v2.667h-8v-8h2.667v3.133c1.133-1.422 2.517-2.522 4.151-3.3s3.361-1.167 5.183-1.167c1.667 0 3.228 0.317 4.684 0.951s2.723 1.489 3.8 2.565c1.077 1.078 1.933 2.345 2.567 3.8s0.95 3.016 0.949 4.684c0 1.667-0.316 3.228-0.949 4.684s-1.488 2.723-2.567 3.8c-1.078 1.077-2.345 1.933-3.8 2.567s-3.016 0.95-4.684 0.949zM19.733 21.6l-5.067-5.067v-7.2h2.667v6.133l4.267 4.267-1.867 1.867z"></path>
</symbol>
<symbol id="icon-start" viewBox="0 0 32 32">
<path d="M8.312 27.5c-0.384-0.001-0.761-0.101-1.094-0.292-0.75-0.425-1.216-1.25-1.216-2.146v-18.125c0-0.898 0.466-1.721 1.216-2.146 0.341-0.196 0.728-0.297 1.122-0.292s0.778 0.115 1.114 0.32l15.491 9.272c0.323 0.202 0.589 0.484 0.774 0.817s0.281 0.708 0.281 1.089c0 0.381-0.097 0.756-0.281 1.089s-0.451 0.614-0.774 0.817l-15.493 9.275c-0.344 0.208-0.738 0.318-1.139 0.32z"></path>
</symbol>
<symbol id="icon-stop" viewBox="0 0 32 32">
<path d="M24.5 27h-17c-0.663 0-1.299-0.263-1.768-0.732s-0.732-1.105-0.732-1.768v-17c0-0.663 0.263-1.299 0.732-1.768s1.105-0.732 1.768-0.732h17c0.663 0 1.299 0.263 1.768 0.732s0.732 1.105 0.732 1.768v17c0 0.663-0.263 1.299-0.732 1.768s-1.105 0.732-1.768 0.732z"></path>
</symbol>
</defs>
</svg>
