<svg aria-hidden="true" style="position: absolute; width: 0; height: 0; overflow: hidden;" version="1.1" xmlns="http://www.w3.org/2000/svg" xmlns:xlink="http://www.w3.org/1999/xlink">
	<defs>
		<symbol id="icon-start" viewBox="0 0 28 32">
			<path d="M3.617 31.333c-0.512-0.001-1.014-0.135-1.458-0.389-1-0.567-1.622-1.667-1.622-2.861v-24.167c0-1.197 0.622-2.294 1.622-2.861 0.455-0.261 0.971-0.396 1.496-0.389s1.037 0.154 1.485 0.427l20.654 12.363c0.43 0.27 0.785 0.645 1.031 1.089s0.375 0.944 0.375 1.452c0 0.508-0.129 1.008-0.375 1.452s-0.601 0.819-1.031 1.089l-20.657 12.367c-0.458 0.277-0.984 0.425-1.519 0.427z">
			</path>
		</symbol>
		<symbol id="icon-stop" viewBox="0 0 32 32">
			<path d="M28.143 31.714h-24.286c-0.947 0-1.856-0.376-2.525-1.046s-1.046-1.578-1.046-2.525v-24.286c0-0.947 0.376-1.856 1.046-2.525s1.578-1.046 2.525-1.046h24.286c0.947 0 1.856 0.376 2.525 1.046s1.046 1.578 1.046 2.525v24.286c0 0.947-0.376 1.856-1.046 2.525s-1.578 1.046-2.525 1.046z">
			</path>
		</symbol>
		<symbol id="icon-reset" viewBox=" 0 0 32 32">
			<path d="M15 30C11.1667 30 7.82667 28.7294 4.98 26.1883C2.13333 23.6472 0.501111 20.4733 0.0833333 16.6667H3.5C3.88889 19.5556 5.17389 21.9444 7.355 23.8333C9.53611 25.7222 12.0844 26.6667 15 26.6667C18.25 26.6667 21.0072 25.535 23.2717 23.2717C25.5361 21.0083 26.6678 18.2511 26.6667 15C26.6667 11.75 25.535 8.99333 23.2717 6.73C21.0083 4.46667 18.2511 3.33444 15 3.33333C13.0833 3.33333 11.2917 3.77778 9.625 4.66667C7.95833 5.55556 6.55556 6.77778 5.41667 8.33333H10V11.6667H0V1.66667H3.33333V5.58333C4.75 3.80556 6.47944 2.43056 8.52167 1.45833C10.5639 0.486111 12.7233 0 15 0C17.0833 0 19.035 0.396111 20.855 1.18833C22.675 1.98056 24.2583 3.04944 25.605 4.395C26.9517 5.74278 28.0211 7.32611 28.8133 9.145C29.6056 10.9639 30.0011 12.9156 30 15C30 17.0833 29.6044 19.035 28.8133 20.855C28.0222 22.675 26.9528 24.2583 25.605 25.605C24.2572 26.9517 22.6739 28.0211 20.855 28.8133C19.0361 29.6056 17.0844 30.0011 15 30ZM19.6667 22L13.3333 15.6667V6.66667H16.6667V14.3333L22 19.6667L19.6667 22Z"/>
		</symbol>
		<symbol id="icon-arrow" viewBox="0 0 32 32">
			<path d="M0.256 23.481c0 0.269 0.106 0.544 0.313 0.75 0.412 0.412 1.087 0.412 1.5 0l14.119-14.119 13.912 13.912c0.412 0.412 1.088 0.412 1.5 0s0.412-1.088 0-1.5l-14.662-14.669c-0.413-0.412-1.088-0.412-1.5 0l-14.869 14.869c-0.213 0.212-0.313 0.481-0.313 0.756z">
			</path>
</symbol>
	</defs>
</svg>
