<svg aria-hidden="true" style="position: absolute; width: 0; height: 0; overflow: hidden;" version="1.1" xmlns="http://www.w3.org/2000/svg" xmlns:xlink="http://www.w3.org/1999/xlink">
	<defs>
		<symbol id="icon-start" viewBox="0 0 28 32">
			<path d="M3.617 31.333c-0.512-0.001-1.014-0.135-1.458-0.389-1-0.567-1.622-1.667-1.622-2.861v-24.167c0-1.197 0.622-2.294 1.622-2.861 0.455-0.261 0.971-0.396 1.496-0.389s1.037 0.154 1.485 0.427l20.654 12.363c0.43 0.27 0.785 0.645 1.031 1.089s0.375 0.944 0.375 1.452c0 0.508-0.129 1.008-0.375 1.452s-0.601 0.819-1.031 1.089l-20.657 12.367c-0.458 0.277-0.984 0.425-1.519 0.427z">
			</path>
		</symbol>
		<symbol id="icon-stop" viewBox="0 0 32 32">
			<path d="M28.143 31.714h-24.286c-0.947 0-1.856-0.376-2.525-1.046s-1.046-1.578-1.046-2.525v-24.286c0-0.947 0.376-1.856 1.046-2.525s1.578-1.046 2.525-1.046h24.286c0.947 0 1.856 0.376 2.525 1.046s1.046 1.578 1.046 2.525v24.286c0 0.947-0.376 1.856-1.046 2.525s-1.578 1.046-2.525 1.046z">
			</path>
		</symbol>
		<symbol id="icon-arrow" viewBox="0 0 32 32">
			<path d="M0.256 23.481c0 0.269 0.106 0.544 0.313 0.75 0.412 0.412 1.087 0.412 1.5 0l14.119-14.119 13.912 13.912c0.412 0.412 1.088 0.412 1.5 0s0.412-1.088 0-1.5l-14.662-14.669c-0.413-0.412-1.088-0.412-1.5 0l-14.869 14.869c-0.213 0.212-0.313 0.481-0.313 0.756z">
			</path>
</symbol>
	</defs>
</svg>
